<?xml version="1.0" encoding="UTF-8"?>
<svg id="b" data-name="Layer 2" xmlns="http://www.w3.org/2000/svg" width="32" height="32" viewBox="0 0 32 32">
  <g id="c" data-name="Layer 1">
    <g id="d" data-name="colorless">
      <circle cx="16" cy="16" r="16" fill="#f0ede2"/>
      <path d="M16,2.346s.941,6.188,2.47,7.717c1.929,1.929,9.466-.902,9.466-.902,0,0-6.166,4.864-6.166,6.838s6.166,6.838,6.166,6.838c0,0-7.537-2.831-9.466-.902-1.53,1.53-2.47,7.717-2.47,7.717,0,0-.941-6.188-2.47-7.717-1.929-1.929-9.466.902-9.466.902,0,0,6.166-4.864,6.166-6.838s-6.166-6.838-6.166-6.838c0,0,7.537,2.831,9.466.902,1.53-1.53,2.47-7.717,2.47-7.717Z"/>
    </g>
  </g>
</svg>