<?xml version="1.0" encoding="UTF-8"?>
<svg id="b" data-name="Layer 2" xmlns="http://www.w3.org/2000/svg" width="32" height="32" viewBox="0 0 32 32">
  <g id="c" data-name="Layer 1">
    <g id="d" data-name="dragon">
      <circle cx="16" cy="16" r="16" fill="#b69b32"/>
      <path d="M13.057,9.966l2.499,9.746c-3.096-1.381-6.284-3.998-6.284-8.915,0-4.581,5.59-5.519,7.392-5.519,1.767,0,4.857,1.633,4.974,1.693-.087-.123-2.978-4.036-9.084-4.036-2.814,0-9.558,2.128-9.558,9.052,0,7.14,6.853,16.515,17.165,16.515,4.365,0,8.043-4.794,8.043-4.794l-15.147-13.742ZM18.409,20.696l-.645-2.904s3.21,2.633,3.552,3.427c0,0-1.231-.088-2.907-.522Z"/>
    </g>
  </g>
</svg>