<?xml version="1.0" encoding="UTF-8"?>
<svg id="b" data-name="Layer 2" xmlns="http://www.w3.org/2000/svg" width="32" height="32" viewBox="0 0 32 32">
  <g id="c" data-name="Layer 1">
    <g id="d" data-name="fairy">
      <circle cx="16" cy="16" r="16" fill="#cf559f"/>
      <path d="M28.829,16c0,5.777-2.542,8.157-6.085,10.239-3.543,2.083-5.861,2.218-6.744,2.218s-3.201-.135-6.744-2.218c-3.543-2.083-6.085-4.463-6.085-10.239s2.623-7.773,2.623-7.773c.216.541-.541,2.272-.595,5.031-.054,2.759,1.947,4.868,5.68,7.302,3.732,2.434,5.121,7.275,5.121,7.275,0,0,1.389-4.841,5.121-7.275,3.732-2.434,5.734-4.544,5.68-7.302-.054-2.759-.811-4.49-.595-5.031,0,0,2.623,1.997,2.623,7.773ZM16,17.251c1.029-3.828,3.064-6.681,6.415-8.258-2.875.155-5.205-1.074-6.415-5.157-1.21,4.083-3.54,5.312-6.415,5.157,3.351,1.577,5.385,4.43,6.415,8.258Z"/>
    </g>
  </g>
</svg>