<?xml version="1.0" encoding="UTF-8"?>
<svg id="b" data-name="Layer 2" xmlns="http://www.w3.org/2000/svg" width="32" height="32" viewBox="0 0 32 32">
  <g id="c" data-name="Layer 1">
    <g id="d" data-name="fighting">
      <circle cx="16" cy="16" r="16" fill="#e15a28"/>
      <path d="M8.247,15.481h-2.678c-.68,0-1.231-.551-1.231-1.231v-7.018c0-.68.551-1.231,1.231-1.231h2.678c.68,0,1.231.551,1.231,1.231v7.018c0,.68-.551,1.231-1.231,1.231ZM15.41,14.251V5.745c0-.68-.551-1.231-1.231-1.231h-2.678c-.68,0-1.231.551-1.231,1.231v8.506c0,.68.551,1.231,1.231,1.231h2.678c.68,0,1.231-.551,1.231-1.231ZM21.342,14.251V5.745c0-.68-.551-1.231-1.231-1.231h-2.678c-.68,0-1.231.551-1.231,1.231v8.506c0,.68.551,1.231,1.231,1.231h2.678c.68,0,1.231-.551,1.231-1.231ZM27.274,14.251v-7.018c0-.68-.551-1.231-1.231-1.231h-2.678c-.68,0-1.231.551-1.231,1.231v7.018c0,.68.551,1.231,1.231,1.231h2.678c.68,0,1.231-.551,1.231-1.231ZM16.555,17.69v1.62c0,1.17-.949,2.119-2.119,2.119h-.837c-1.115,0-2.018.904-2.018,2.018v.784c0,1.091-.884,1.975-1.975,1.975h-4.036c-.68,0-1.231-.551-1.231-1.231v-7.285c0-.68.551-1.231,1.231-1.231h9.754c.68,0,1.231.551,1.231,1.231ZM25.264,16.459h-5.585c-1.108,0-2.006.898-2.006,2.006v2.222c0,.976-.791,1.766-1.766,1.766h-1.064c-1.125,0-2.038.912-2.038,2.038v1.227c0,.827-.67,1.497-1.497,1.497h-.223c-.352,0-.638.285-.638.638v1.323c0,.352.285.638.638.638h9.689c.32,0,.579-.259.579-.579v-1.064c0-1.085.879-1.964,1.964-1.964h2.778c.651,0,1.179-.528,1.179-1.179v-6.557c0-1.11-.9-2.01-2.01-2.01Z"/>
    </g>
  </g>
</svg>