<?xml version="1.0" encoding="UTF-8"?>
<svg id="b" data-name="Layer 2" xmlns="http://www.w3.org/2000/svg" width="32" height="32" viewBox="0 0 32 32">
  <g id="c" data-name="Layer 1">
    <g id="d" data-name="fire">
      <circle cx="16" cy="16" r="16" fill="#ed4529"/>
      <path d="M24.886,20.833c-.881.109-1.501.027-1.501.027,0,0,4.652-3.623,4.652-6.383,0-1.838-1.02-2.705-1.02-2.705,0,0-.864,1.857-2.234,2.598-1.37.738-2.696.946-3.128,1.025-.432.082-.744.15-.905-.066-.164-.219.014-.73.052-1.244.041-.514.407-3.492-.96-6.749-1.838-4.381-5.193-5.084-5.193-5.084,0,0,1.57,2.163,1.354,3.082s-.487,1.676-2.893,3.435c-2.409,1.758-3.517,3.815-3.544,5.275-.027,1.46.703,2.787.703,2.787,0,0-2.543-1.22-2.568-3.571-.027-2.281.809-3.648.861-3.73-.12.077-3.984,2.573-3.648,7.302.243,3.407,2.759,5.704,2.759,5.704,0,0-1.217-.295-2.245-.946-1.028-.648-2.056-1.515-2.056-1.515,0,0,.894,4.652,4.354,6.951,3.462,2.3,4.942,2.614,8.693,2.614,0,0,3.64.252,7.427-2.33,3.787-2.584,5.543-6.626,5.951-9.156,0,0-3.098,2.456-4.909,2.677ZM21.139,26.701c0,1.326-1.731,2.543-4.922,2.543s-5.464-1.622-5.464-2.921c0-.812,1.217-1.124,1.217-2.379,0-.637-.421-1.004-1.053-1.652,1.668-.03,2.428.643,2.54,1.813,0,0,1.015-.405.946-1.597-.066-1.19-1.745-2.067-1.488-2.784.804-2.242,4.14-2.677,4.14-2.677,0,0-1.192,1.283-1.056,2.108.134.826,1.406,1.447,1.649,2.056.243.607.271,1.758.271,1.758,0,0,.84-1.11,1.676-1.488.84-.38,1.92-.325,1.92-.325,0,0-1.406,1.028-1.406,2.3s1.028,2.486,1.028,3.243Z"/>
    </g>
  </g>
</svg>