<?xml version="1.0" encoding="UTF-8"?>
<svg id="b" data-name="Layer 2" xmlns="http://www.w3.org/2000/svg" width="32" height="32" viewBox="0 0 32 32">
  <g id="c" data-name="Layer 1">
    <g id="d" data-name="grass">
      <circle cx="16" cy="16" r="16" fill="#21a34b"/>
      <path d="M28.464,17.78c0-1.433-.609-3.665-2.204-7.113-1.596-3.448-3.611-6.04-4.17-6.825-.559-.784-.964-1.353-1.28-1.506-.115-.055-.379-.061-.825.115-.446.176-3.286,1.237-6.261,2.914-2.975,1.677-5.774,3.665-7.803,6.437-2.028,2.772-2.15,4.571-2.231,5.666s.234,3.205,1.402,4.661,1.695,1.587,2.425,2.065,1.659.762,2.168.96c.509.198,1.032.6,1.474,1.149.442.55.527,1.303.536,1.781s.045.802.397,1.217.933.415,1.433.505c.5.09,1.474.298,1.722.298s.343-.086.397-.23.032-.563,0-.992-.068-.636-.162-1.258c-.095-.622-.074-.877.081-1.068.193-.237,1.46-.122,4.733-.852,3.273-.73,5.355-1.839,6.843-3.381,1.488-1.542,1.325-3.11,1.325-4.544ZM14.233,20.093c.086.068.153.113.388-.018s2.655-.978,4.233-.978c1.407,0,2.533.051,3.309.198,1.515.288,2.019,1.001,2.019,1.001,0,0-2.412-.974-5.562-.135-3.151.838-4.463,2.11-4.652,2.326-.189.216-.352.609-.365,1.041-.014.433-.257,3.246-.257,3.246,0,0-.974-1.677-1.014-2.718-.041-1.041.243-1.46-.352-2.542-.595-1.082-1.69-1.866-2.975-2.326s-2.84-.703-2.84-.703c1.951-.65,4.014-.461,6.248,1.001,0,0,.406-1.853.46-2.15.054-.297.216-.568-.047-1.014-.264-.446-1.21-1.442-2.472-1.911-1.262-.469-2.723-.667-2.723-.667,2.007-.575,3.999-.719,5.932.974,0,0,.234.081.514-1.091s.018-1.893-1.001-2.723c-1.019-.829-2.236-1.235-2.236-1.235,0,0,1.073-.487,2.416.135s1.569,1.163,1.983,1.01c.415-.153.631-.784.956-1.397s1.713-2.632,1.848-2.804c.135-.171.334-.388.334-.388l-1.785,4.841c2.28-.923,4.351-1.116,6.185-.478-4.884.628-7.401,2.09-7.411,4.436,3.525-1.798,6.316-1.124,8.871.343,0,0-3.438-1.109-7.203.514-.523.225-.929.198-1.397.541s-.947.658-1.181,1.488c-.234.829-.289,1.713-.289,1.821s-.018.297.068.365Z"/>
    </g>
  </g>
</svg>