<?xml version="1.0" encoding="UTF-8"?>
<svg id="b" data-name="Layer 2" xmlns="http://www.w3.org/2000/svg" width="32" height="32" viewBox="0 0 32 32">
  <g id="c" data-name="Layer 1">
    <g id="d" data-name="metal">
      <circle cx="16" cy="16" r="16" fill="#9aa1a8"/>
      <g>
        <path d="M21.095,22.741l-1.974,3.425c-.284.493-.811.797-1.38.797h-2.939c-.57,0-1.096-.304-1.38-.798l-1.972-3.422-1.291,1.963c-.24.364-.254.833-.036,1.21l1.963,3.409c.133.23.378.372.644.372h7.083c.266,0,.511-.142.643-.372l1.966-3.412c.218-.378.204-.846-.036-1.211l-1.291-1.963Z"/>
        <path d="M7.69,9.617c.291-.468.802-.752,1.353-.752h3.747l-1.018-2.087c-.193-.396-.596-.648-1.037-.648h-3.684c-.257,0-.495.133-.631.351l-3.652,5.881c-.144.232-.149.526-.013.763l1.988,3.451c.206.358.587.578,1,.578h2.489l-2.037-3.536c-.293-.509-.283-1.137.027-1.636l1.469-2.365Z"/>
        <polygon points="16.272 23.161 22.789 11.873 9.755 11.873 16.272 23.161"/>
        <path d="M29.778,12.362l-3.652-5.881c-.135-.218-.374-.351-.631-.351h-3.684c-.441,0-.844.252-1.037.648l-1.018,2.087h3.747c.551,0,1.062.285,1.353.752l1.469,2.365c.31.499.32,1.127.027,1.636l-2.037,3.536h2.489c.413,0,.794-.22,1-.578l1.988-3.451c.137-.237.132-.53-.013-.763Z"/>
      </g>
    </g>
  </g>
</svg>