<?xml version="1.0" encoding="UTF-8"?>
<svg id="b" data-name="Layer 2" xmlns="http://www.w3.org/2000/svg" width="32" height="32" viewBox="0 0 32 32">
  <g id="c" data-name="Layer 1">
    <g id="d" data-name="psychic">
      <circle cx="16" cy="16" r="16" fill="#9153a0"/>
      <path d="M16.19,6.458C7.319,6.458,1.945,15.149,1.945,17.457s5.852,9.88,14.245,9.88,14.245-7.572,14.245-9.88-5.374-10.999-14.245-10.999ZM13.773,17.183c1.231,0,2.226-.998,2.226-2.226,0-.738-.358-1.392-.908-1.797.287-.085.593-.131.908-.131,1.778,0,3.219,1.441,3.219,3.219s-1.441,3.219-3.219,3.219c-1.52,0-2.795-1.056-3.128-2.475.276.123.58.191.902.191ZM16.19,24.703c-4.725,0-11.253-5.092-11.253-7.247,0-1.745,3.101-6.003,7.753-7.556-2.286,1.192-3.848,3.588-3.848,6.347,0,3.952,3.205,7.157,7.157,7.157s7.159-3.205,7.159-7.157c0-2.997-1.84-5.562-4.452-6.629,5.19,1.233,8.737,5.97,8.737,7.837,0,2.155-6.528,7.247-11.253,7.247Z"/>
    </g>
  </g>
</svg>