<?xml version="1.0" encoding="UTF-8"?>
<svg id="b" data-name="Layer 2" xmlns="http://www.w3.org/2000/svg" width="32" height="32" viewBox="0 0 32 32">
  <g id="c" data-name="Layer 1">
    <g id="d" data-name="water">
      <circle cx="16" cy="16" r="16" fill="#248ccc"/>
      <path d="M21.431,16.725c-1.947-2.308-2.669-3.498-2.669-5.914s3.534-4.562,6.888-5.4c0,0-8.907.063-14.172,2.984s-7.789,5.77-7.789,10.35,3.39,7.104,5.698,8.222c2.308,1.118,5.734,2.019,8.583,1.623,2.849-.397,6.599-1.515,6.599-5.553s-1.19-4.003-3.137-6.311ZM15.896,26.552c-.234.487-1.839.847-4.039,0-2.2-.847-3.282-1.947-2.831-2.903.451-.956,2.793-.535,3.985,0,3.162,1.418,3.119,2.416,2.885,2.903Z"/>
    </g>
  </g>
</svg>